<svg xmlns="http://www.w3.org/2000/svg" width="1536" height="512" viewBox="0 0 1536 512">
<!-- True vector paths reconstructed from the supplied logo image; background is transparent. -->
<path fill="#ffffff" fill-rule="evenodd" d="M 201,300 L 199,305 L 199,311 L 201,315 L 209,321 L 216,321 L 223,317 L 225,317 L 228,322 L 227,323 L 228,332 L 234,340 L 245,344 L 256,339 L 259,342 L 258,346 L 260,352 L 265,356 L 272,359 L 276,359 L 281,357 L 286,353 L 290,356 L 290,362 L 293,368 L 296,371 L 306,375 L 307,374 L 313,374 L 322,368 L 325,362 L 325,351 L 323,347 L 317,341 L 313,339 L 296,340 L 294,338 L 295,332 L 297,329 L 297,322 L 294,316 L 288,311 L 276,310 L 269,315 L 267,315 L 264,311 L 263,305 L 259,301 L 252,298 L 242,299 L 235,303 L 230,309 L 226,306 L 226,302 L 223,298 L 218,295 L 207,295 Z M 89,248 L 90,253 L 95,253 L 103,256 L 123,260 L 126,262 L 134,263 L 137,265 L 143,266 L 158,272 L 161,272 L 166,275 L 180,280 L 195,289 L 197,289 L 200,286 L 208,283 L 217,283 L 224,285 L 231,291 L 241,287 L 255,287 L 266,292 L 273,300 L 279,298 L 280,299 L 288,299 L 297,303 L 306,313 L 308,319 L 307,320 L 308,321 L 308,327 L 321,330 L 333,341 L 337,352 L 335,368 L 339,369 L 341,371 L 345,371 L 350,373 L 358,372 L 362,370 L 362,368 L 350,355 L 346,349 L 343,347 L 342,342 L 344,340 L 348,340 L 352,343 L 371,362 L 376,365 L 387,363 L 392,358 L 393,353 L 390,348 L 366,322 L 366,319 L 369,316 L 372,316 L 404,345 L 412,346 L 418,344 L 424,339 L 426,335 L 426,330 L 423,324 L 390,292 L 389,288 L 392,285 L 395,285 L 436,320 L 439,321 L 449,320 L 455,315 L 456,312 L 455,302 L 440,288 L 356,217 L 341,211 L 329,212 L 318,217 L 295,235 L 282,243 L 272,246 L 259,246 L 248,243 L 241,239 L 236,232 L 236,226 L 240,220 L 262,198 L 235,204 L 212,203 L 209,201 L 198,200 L 195,198 L 186,197 L 183,195 L 167,191 L 164,189 L 137,180 L 118,197 L 102,217 L 93,234 Z M 249,229 L 250,231 L 256,234 L 263,234 L 264,235 L 272,234 L 283,229 L 315,204 L 333,198 L 345,199 L 354,202 L 367,211 L 457,288 L 510,268 L 513,268 L 547,257 L 558,255 L 554,238 L 552,236 L 551,231 L 542,215 L 533,203 L 515,185 L 508,188 L 505,188 L 500,191 L 491,193 L 488,195 L 475,197 L 472,199 L 471,198 L 465,200 L 438,201 L 437,200 L 428,200 L 423,198 L 408,196 L 405,194 L 391,190 L 375,182 L 355,176 L 347,176 L 346,175 L 318,176 L 307,180 L 304,180 L 286,191 L 267,209 Z"/>
<path fill="#00b4e9" fill-rule="evenodd" d="M 821,316 L 813,314 L 810,312 L 805,312 L 798,310 L 796,311 L 795,310 L 787,310 L 767,314 L 760,318 L 754,324 L 748,337 L 748,346 L 772,346 L 775,339 L 780,334 L 785,332 L 786,333 L 787,332 L 799,333 L 804,335 L 807,339 L 807,346 L 804,350 L 800,352 L 790,354 L 768,356 L 756,362 L 749,369 L 746,374 L 744,382 L 745,383 L 744,384 L 744,394 L 747,404 L 754,412 L 768,419 L 799,418 L 816,413 L 825,407 L 829,402 L 834,390 L 834,384 L 835,383 L 835,336 L 830,324 Z M 808,369 L 807,386 L 805,390 L 800,395 L 794,398 L 781,399 L 776,397 L 771,391 L 771,381 L 775,376 L 781,373 L 785,373 L 788,371 L 796,371 L 806,367 Z M 713,314 L 705,311 L 699,311 L 698,310 L 672,311 L 657,317 L 645,329 L 640,340 L 638,350 L 638,450 L 639,451 L 654,451 L 660,448 L 665,441 L 665,409 L 667,407 L 672,412 L 679,416 L 689,419 L 698,419 L 714,414 L 720,410 L 729,400 L 733,392 L 737,377 L 736,374 L 737,373 L 737,348 L 733,336 L 727,326 L 719,318 Z M 684,333 L 691,333 L 699,336 L 706,343 L 710,353 L 710,373 L 707,382 L 699,392 L 692,395 L 683,395 L 676,392 L 668,383 L 665,373 L 665,357 L 668,346 L 670,342 L 675,337 Z M 990,310 L 974,316 L 965,324 L 957,336 L 952,353 L 952,375 L 954,379 L 954,383 L 958,393 L 966,405 L 970,409 L 980,415 L 990,417 L 993,419 L 1011,419 L 1012,418 L 1023,417 L 1025,415 L 1028,415 L 1039,409 L 1049,398 L 1049,396 L 1054,387 L 1057,375 L 1057,351 L 1055,343 L 1047,327 L 1035,316 L 1023,311 L 1013,309 Z M 1000,332 L 1009,332 L 1019,336 L 1024,341 L 1027,347 L 1030,362 L 1029,363 L 1030,367 L 1026,383 L 1018,392 L 1008,396 L 1001,396 L 991,392 L 983,383 L 981,378 L 981,372 L 979,369 L 980,368 L 979,359 L 981,356 L 981,351 L 983,345 L 990,336 Z M 891,309 L 890,310 L 881,310 L 872,312 L 860,319 L 854,326 L 848,336 L 848,340 L 844,353 L 844,372 L 847,386 L 854,400 L 868,413 L 877,417 L 891,418 L 902,415 L 913,407 L 916,410 L 915,417 L 912,425 L 904,433 L 898,436 L 887,436 L 881,433 L 876,427 L 866,427 L 865,426 L 863,427 L 847,427 L 849,434 L 857,447 L 865,453 L 884,460 L 899,461 L 911,458 L 924,451 L 932,443 L 939,430 L 942,418 L 942,400 L 943,399 L 942,398 L 943,397 L 942,396 L 942,391 L 943,390 L 942,389 L 943,387 L 942,385 L 942,380 L 943,379 L 942,378 L 942,370 L 943,369 L 942,368 L 941,343 L 939,339 L 939,336 L 934,327 L 926,319 L 913,312 L 905,310 L 892,310 Z M 888,333 L 899,333 L 908,339 L 912,345 L 916,362 L 915,363 L 916,364 L 915,373 L 911,385 L 904,392 L 897,395 L 888,395 L 880,392 L 874,385 L 871,375 L 871,356 L 875,344 L 883,335 Z M 85,269 L 86,270 L 85,272 L 86,274 L 86,279 L 85,280 L 86,281 L 86,289 L 91,307 L 97,321 L 107,337 L 118,350 L 133,364 L 147,375 L 165,386 L 179,392 L 181,394 L 202,403 L 205,403 L 208,405 L 211,405 L 226,411 L 274,421 L 282,421 L 291,423 L 304,423 L 305,424 L 362,423 L 369,421 L 377,421 L 378,420 L 384,420 L 389,418 L 399,417 L 403,415 L 416,413 L 447,403 L 483,386 L 514,364 L 536,341 L 551,317 L 557,302 L 558,294 L 560,289 L 560,268 L 555,268 L 532,274 L 522,278 L 519,278 L 516,280 L 513,280 L 498,286 L 478,292 L 473,295 L 466,297 L 466,300 L 468,304 L 468,313 L 466,319 L 461,325 L 448,332 L 439,332 L 437,335 L 437,339 L 435,343 L 430,349 L 419,356 L 406,357 L 400,366 L 393,372 L 387,375 L 382,375 L 381,376 L 373,375 L 367,380 L 356,384 L 346,384 L 336,381 L 328,377 L 318,384 L 307,386 L 295,383 L 286,376 L 281,369 L 275,369 L 274,370 L 273,369 L 267,369 L 260,366 L 253,360 L 249,354 L 239,354 L 229,350 L 221,342 L 216,332 L 207,332 L 197,327 L 192,322 L 188,315 L 187,307 L 189,299 L 182,294 L 150,281 L 127,274 L 116,272 L 112,270 L 99,268 L 91,265 L 86,265 Z M 149,171 L 157,175 L 160,175 L 172,180 L 192,185 L 199,188 L 219,192 L 240,191 L 249,188 L 257,187 L 261,185 L 279,183 L 287,176 L 296,171 L 310,166 L 331,162 L 332,163 L 335,162 L 336,163 L 350,163 L 360,165 L 382,172 L 395,179 L 398,179 L 407,183 L 410,183 L 417,186 L 422,186 L 435,189 L 457,189 L 458,188 L 471,187 L 486,182 L 489,182 L 504,176 L 496,169 L 475,156 L 473,156 L 471,154 L 450,144 L 432,138 L 430,136 L 400,128 L 394,128 L 376,124 L 368,124 L 362,122 L 349,122 L 348,121 L 344,122 L 341,121 L 290,122 L 289,123 L 280,123 L 279,124 L 259,126 L 239,130 L 235,132 L 218,136 L 193,146 L 191,148 L 184,150 L 162,163 L 160,163 Z"/>
<path fill="#1d2d6b" fill-rule="evenodd" d="M 1105,163 L 1095,171 L 1091,177 L 1088,185 L 1087,196 L 1114,196 L 1117,188 L 1121,184 L 1128,181 L 1137,181 L 1145,183 L 1150,187 L 1150,195 L 1146,200 L 1135,203 L 1116,204 L 1108,206 L 1101,209 L 1092,215 L 1084,230 L 1084,246 L 1086,254 L 1094,264 L 1100,268 L 1113,272 L 1114,271 L 1116,272 L 1118,271 L 1140,271 L 1141,270 L 1152,269 L 1167,261 L 1173,255 L 1178,245 L 1180,235 L 1180,186 L 1179,185 L 1180,183 L 1175,171 L 1166,164 L 1148,158 L 1119,158 Z M 1151,220 L 1150,224 L 1151,229 L 1149,238 L 1142,246 L 1133,250 L 1122,250 L 1114,245 L 1113,243 L 1113,233 L 1119,226 L 1128,223 L 1143,221 L 1145,219 L 1146,220 L 1149,218 Z M 1009,160 L 991,169 L 983,178 L 977,189 L 975,203 L 973,208 L 973,215 L 974,216 L 973,217 L 973,226 L 977,242 L 984,254 L 993,263 L 1004,269 L 1005,268 L 1008,270 L 1018,271 L 1019,272 L 1040,271 L 1044,269 L 1047,269 L 1058,263 L 1068,253 L 1075,239 L 1076,229 L 1064,229 L 1063,228 L 1062,229 L 1058,228 L 1057,229 L 1053,228 L 1049,229 L 1048,228 L 1045,231 L 1045,235 L 1042,241 L 1038,245 L 1031,248 L 1024,248 L 1017,246 L 1008,238 L 1005,227 L 1005,207 L 1007,197 L 1014,187 L 1017,185 L 1022,184 L 1024,182 L 1029,182 L 1039,186 L 1044,191 L 1047,200 L 1076,200 L 1076,193 L 1073,182 L 1070,176 L 1063,168 L 1059,165 L 1047,160 L 1039,158 L 1018,158 Z M 970,158 L 955,158 L 941,162 L 926,171 L 917,181 L 917,183 L 912,192 L 909,207 L 909,267 L 911,269 L 937,269 L 938,268 L 937,265 L 938,263 L 937,260 L 938,258 L 937,255 L 938,254 L 938,249 L 937,248 L 938,241 L 937,240 L 938,239 L 938,207 L 939,202 L 943,195 L 949,190 L 956,188 L 970,188 L 971,185 L 970,184 L 971,183 L 971,160 Z M 829,160 L 816,167 L 807,176 L 800,188 L 796,204 L 796,230 L 797,231 L 796,232 L 798,236 L 798,239 L 802,248 L 810,258 L 821,266 L 829,268 L 831,270 L 836,271 L 862,271 L 871,268 L 887,257 L 893,249 L 896,240 L 868,240 L 862,246 L 858,248 L 853,249 L 852,248 L 841,248 L 836,246 L 828,238 L 825,231 L 824,225 L 826,223 L 835,223 L 836,222 L 837,223 L 840,222 L 841,223 L 848,223 L 849,222 L 850,223 L 857,223 L 858,222 L 859,223 L 863,222 L 864,223 L 867,222 L 868,223 L 897,223 L 898,222 L 898,207 L 894,188 L 886,174 L 874,164 L 871,164 L 869,162 L 854,158 L 839,158 Z M 825,201 L 827,194 L 834,186 L 842,182 L 851,182 L 857,184 L 865,191 L 869,202 L 867,204 L 827,204 Z M 647,174 L 642,183 L 639,195 L 639,207 L 638,208 L 638,268 L 639,269 L 663,269 L 664,268 L 664,201 L 666,194 L 673,187 L 680,185 L 685,185 L 693,189 L 696,192 L 699,199 L 699,210 L 700,211 L 699,212 L 700,215 L 699,216 L 699,268 L 700,269 L 724,269 L 725,268 L 725,200 L 727,195 L 733,188 L 741,185 L 745,185 L 753,188 L 757,192 L 760,198 L 760,240 L 761,241 L 760,242 L 761,244 L 760,245 L 760,263 L 761,264 L 760,269 L 785,269 L 786,268 L 786,196 L 785,195 L 785,189 L 780,177 L 771,166 L 762,161 L 756,160 L 754,158 L 735,158 L 725,162 L 713,171 L 702,162 L 690,158 L 672,158 L 661,162 L 655,166 Z M 1346,157 L 1333,161 L 1322,168 L 1315,175 L 1306,191 L 1304,199 L 1305,200 L 1303,203 L 1303,224 L 1306,237 L 1316,254 L 1323,261 L 1333,267 L 1341,270 L 1352,271 L 1353,272 L 1371,272 L 1377,270 L 1382,270 L 1384,268 L 1390,267 L 1399,261 L 1406,254 L 1414,241 L 1414,238 L 1418,228 L 1418,202 L 1416,192 L 1414,189 L 1413,184 L 1408,176 L 1399,167 L 1393,163 L 1382,158 L 1370,157 L 1363,155 L 1362,156 L 1360,155 L 1356,157 Z M 1357,181 L 1365,181 L 1375,185 L 1383,194 L 1386,202 L 1386,210 L 1387,211 L 1386,213 L 1387,217 L 1386,225 L 1383,235 L 1375,244 L 1363,248 L 1351,246 L 1341,238 L 1336,228 L 1336,222 L 1334,216 L 1335,215 L 1337,198 L 1341,190 L 1350,183 Z M 1295,123 L 1280,124 L 1272,128 L 1268,132 L 1265,141 L 1265,167 L 1263,169 L 1258,164 L 1244,158 L 1226,158 L 1212,163 L 1203,170 L 1197,177 L 1189,196 L 1188,207 L 1187,208 L 1187,225 L 1188,226 L 1189,236 L 1195,250 L 1200,257 L 1207,263 L 1227,271 L 1233,271 L 1234,272 L 1257,271 L 1265,269 L 1277,263 L 1286,254 L 1290,248 L 1295,232 Z M 1238,183 L 1245,183 L 1256,189 L 1262,197 L 1266,215 L 1264,230 L 1261,237 L 1256,243 L 1245,248 L 1237,248 L 1229,244 L 1222,237 L 1218,224 L 1218,210 L 1220,200 L 1224,192 L 1229,187 Z M 87,221 L 81,234 L 76,252 L 76,258 L 75,259 L 75,298 L 76,300 L 75,302 L 78,317 L 81,324 L 81,327 L 83,329 L 85,338 L 95,356 L 105,370 L 131,396 L 152,411 L 171,422 L 176,423 L 193,431 L 196,431 L 208,436 L 212,436 L 214,438 L 217,438 L 224,441 L 229,441 L 234,444 L 239,445 L 243,444 L 245,446 L 255,447 L 260,449 L 278,450 L 284,452 L 297,452 L 298,453 L 299,452 L 300,453 L 301,452 L 303,453 L 308,452 L 309,453 L 339,453 L 340,452 L 348,453 L 350,452 L 351,453 L 354,451 L 359,452 L 360,451 L 383,450 L 384,449 L 390,449 L 393,447 L 399,447 L 404,445 L 418,443 L 425,440 L 431,439 L 434,437 L 446,435 L 450,432 L 455,431 L 473,422 L 475,422 L 482,417 L 489,414 L 516,395 L 532,380 L 543,367 L 555,348 L 565,324 L 565,320 L 568,313 L 570,303 L 570,296 L 571,295 L 571,262 L 569,260 L 570,258 L 567,243 L 565,240 L 562,228 L 560,226 L 557,218 L 536,190 L 512,168 L 490,152 L 488,152 L 481,147 L 467,140 L 465,140 L 463,138 L 456,136 L 444,130 L 436,128 L 433,126 L 430,126 L 425,123 L 414,120 L 408,120 L 406,118 L 402,118 L 397,116 L 385,115 L 382,113 L 365,112 L 361,110 L 359,111 L 358,110 L 343,110 L 342,109 L 337,109 L 336,110 L 335,109 L 312,109 L 311,110 L 301,110 L 300,111 L 297,110 L 291,112 L 289,111 L 288,112 L 278,112 L 277,113 L 269,113 L 264,115 L 257,115 L 247,117 L 244,119 L 225,122 L 208,129 L 202,130 L 197,133 L 191,134 L 185,138 L 183,138 L 156,152 L 123,176 L 101,199 Z M 198,301 L 205,294 L 211,292 L 216,292 L 222,295 L 228,302 L 229,307 L 235,301 L 240,298 L 246,296 L 253,296 L 260,299 L 263,302 L 268,313 L 276,308 L 287,308 L 297,316 L 299,322 L 299,330 L 297,334 L 297,339 L 305,336 L 309,336 L 318,339 L 327,350 L 328,355 L 327,363 L 325,367 L 316,375 L 306,377 L 297,374 L 290,367 L 287,355 L 279,360 L 269,360 L 263,357 L 258,352 L 255,341 L 249,345 L 240,345 L 234,342 L 226,333 L 225,319 L 216,323 L 209,323 L 203,320 L 200,317 L 197,311 Z M 83,272 L 84,271 L 84,265 L 86,263 L 143,277 L 179,291 L 188,296 L 191,299 L 189,304 L 189,312 L 191,318 L 199,327 L 206,330 L 217,331 L 219,333 L 220,338 L 224,344 L 230,349 L 241,353 L 248,353 L 249,352 L 257,362 L 265,367 L 269,368 L 279,368 L 281,367 L 289,377 L 296,382 L 303,384 L 313,384 L 319,382 L 328,375 L 337,380 L 344,382 L 359,382 L 366,379 L 373,373 L 374,374 L 385,374 L 392,371 L 401,363 L 405,356 L 407,355 L 408,356 L 409,355 L 410,356 L 411,355 L 418,355 L 427,350 L 434,342 L 436,337 L 436,333 L 438,331 L 449,330 L 459,325 L 466,315 L 466,302 L 464,298 L 467,295 L 493,286 L 496,284 L 502,283 L 508,280 L 520,277 L 523,275 L 530,274 L 537,271 L 559,266 L 561,268 L 562,271 L 561,279 L 562,281 L 561,282 L 560,297 L 558,300 L 557,307 L 550,322 L 542,335 L 533,347 L 516,364 L 486,386 L 458,400 L 443,406 L 414,415 L 410,415 L 401,418 L 396,418 L 387,421 L 381,421 L 366,424 L 317,426 L 316,425 L 299,425 L 298,424 L 287,424 L 279,422 L 270,422 L 259,419 L 249,418 L 245,416 L 231,414 L 218,410 L 207,405 L 201,404 L 196,401 L 193,401 L 154,381 L 137,369 L 123,357 L 111,344 L 98,326 L 88,303 L 84,286 L 85,282 Z M 87,246 L 89,243 L 90,236 L 93,229 L 103,212 L 111,202 L 129,184 L 137,178 L 162,186 L 168,189 L 181,192 L 187,195 L 192,195 L 195,197 L 215,201 L 240,201 L 263,195 L 265,197 L 241,222 L 238,227 L 239,234 L 244,239 L 254,243 L 270,244 L 280,242 L 292,235 L 319,214 L 332,209 L 343,209 L 360,218 L 452,296 L 458,304 L 458,313 L 451,321 L 447,323 L 435,322 L 409,300 L 395,287 L 392,287 L 391,290 L 427,326 L 428,328 L 427,338 L 421,344 L 416,347 L 407,348 L 401,346 L 372,318 L 369,318 L 368,321 L 395,352 L 395,356 L 393,360 L 385,366 L 380,366 L 379,367 L 373,366 L 348,342 L 344,342 L 345,347 L 348,349 L 365,369 L 361,373 L 355,375 L 349,375 L 335,371 L 333,369 L 333,365 L 335,362 L 335,352 L 331,341 L 322,333 L 313,330 L 308,330 L 306,328 L 306,320 L 304,317 L 304,314 L 301,309 L 295,304 L 286,301 L 274,301 L 273,302 L 264,293 L 254,289 L 243,289 L 234,293 L 231,293 L 223,287 L 217,285 L 209,285 L 202,287 L 197,291 L 195,291 L 180,282 L 168,278 L 163,275 L 157,274 L 155,272 L 148,271 L 146,269 L 139,268 L 136,266 L 132,266 L 126,263 L 117,262 L 114,260 L 93,256 L 87,252 Z M 247,228 L 287,188 L 304,178 L 318,174 L 324,174 L 325,173 L 350,173 L 355,174 L 362,177 L 375,180 L 389,187 L 409,194 L 421,197 L 429,197 L 438,199 L 441,198 L 442,199 L 446,198 L 447,199 L 449,198 L 454,199 L 455,198 L 480,195 L 515,183 L 533,200 L 544,214 L 546,220 L 549,223 L 554,233 L 558,244 L 558,248 L 560,251 L 560,255 L 556,258 L 540,261 L 537,263 L 533,263 L 527,266 L 520,267 L 495,276 L 489,277 L 482,281 L 467,286 L 465,288 L 456,290 L 447,281 L 374,219 L 355,205 L 345,201 L 334,200 L 322,203 L 311,209 L 283,231 L 269,237 L 262,237 L 251,234 L 247,230 Z M 147,171 L 150,168 L 173,154 L 194,144 L 214,136 L 237,129 L 241,129 L 250,126 L 263,125 L 269,123 L 284,122 L 285,121 L 296,121 L 297,120 L 299,121 L 300,120 L 313,120 L 314,119 L 339,119 L 340,120 L 365,121 L 370,123 L 380,123 L 391,126 L 407,128 L 418,132 L 425,133 L 428,135 L 449,142 L 464,150 L 469,151 L 498,169 L 505,176 L 497,181 L 494,181 L 473,188 L 443,191 L 442,190 L 424,189 L 420,187 L 405,184 L 394,180 L 378,172 L 362,167 L 346,164 L 328,164 L 327,165 L 311,167 L 297,172 L 290,177 L 288,177 L 278,185 L 264,186 L 238,193 L 221,194 L 215,192 L 205,191 L 201,189 L 197,189 L 183,184 L 180,184 L 177,182 L 174,182 L 156,176 Z"/>
</svg>